<?xml version="1.0" standalone="no"?>
<!DOCTYPE svg PUBLIC "-//W3C//DTD SVG 20010904//EN"
 "http://www.w3.org/TR/2001/REC-SVG-20010904/DTD/svg10.dtd">
<svg version="1.0" xmlns="http://www.w3.org/2000/svg"
 width="500.000000pt" height="500.000000pt" viewBox="0 0 500.000000 500.000000"
 preserveAspectRatio="xMidYMid meet">

<g transform="translate(0.000000,500.000000) scale(0.100000,-0.100000)"
fill="#000000" stroke="none">
<path d="M0 2500 l0 -2500 2500 0 2500 0 0 2500 0 2500 -2500 0 -2500 0 0
-2500z m1630 -10 c0 -793 0 -800 -20 -800 -20 0 -20 7 -20 438 0 240 -4 431
-9 424 -7 -12 -146 -52 -183 -52 -9 0 -18 6 -21 13 -3 9 -7 9 -17 0 -10 -9
-10 -25 0 -79 27 -142 -6 -312 -86 -446 -49 -80 -170 -190 -257 -233 -97 -47
-174 -65 -279 -65 -105 0 -173 13 -256 51 -335 151 -475 535 -316 867 28 59
56 96 118 158 125 124 229 174 413 195 76 9 110 18 151 41 47 27 60 30 122 26
108 -6 165 -59 165 -153 0 -51 3 -56 56 -112 30 -32 62 -68 71 -81 9 -14 30
-26 49 -29 18 -2 42 -11 53 -18 12 -7 41 -16 66 -20 75 -10 145 -29 152 -40 4
-5 8 153 8 353 0 355 0 362 20 362 20 0 20 -7 20 -800z m870 507 c49 -17 76
-72 60 -122 -7 -20 -20 -41 -30 -47 -18 -11 -18 -13 0 -47 10 -20 25 -53 33
-73 l16 -38 -37 0 c-37 0 -38 2 -66 65 -20 47 -33 65 -47 65 -17 0 -19 -8 -19
-65 l0 -65 -35 0 -35 0 0 163 c0 90 3 167 7 170 11 11 115 7 153 -6z m1463 2
c58 -16 106 -65 115 -119 15 -86 -10 -153 -71 -190 -38 -23 -104 -35 -152 -26
l-35 7 0 163 c0 89 3 166 7 169 10 11 94 8 136 -4z m493 -10 c116 -55 121
-230 10 -299 -53 -32 -113 -35 -166 -8 -62 32 -90 77 -90 146 0 73 33 132 92
161 54 27 100 27 154 0z m387 10 c34 -9 37 -13 37 -48 l0 -38 -41 20 c-52 25
-94 15 -94 -23 0 -22 7 -26 65 -41 76 -20 100 -44 100 -101 0 -80 -90 -125
-190 -96 -44 13 -45 15 -48 57 l-3 43 31 -22 c59 -42 174 -20 144 28 -6 9 -34
22 -63 28 -70 16 -99 37 -106 78 -9 46 12 87 55 108 40 21 61 22 113 7z
m-2676 -149 c29 -80 55 -153 59 -162 4 -15 -1 -18 -34 -18 -36 0 -40 3 -48 33
-9 31 -12 32 -66 35 l-56 3 -12 -36 c-10 -31 -15 -35 -47 -35 -24 0 -34 4 -31
13 3 6 29 81 58 165 l54 153 35 -3 34 -3 54 -145z m729 134 c-3 -9 -6 -22 -6
-30 0 -10 -14 -14 -55 -14 -54 0 -55 0 -55 -30 0 -29 2 -30 45 -30 43 0 45 -1
45 -30 0 -29 -2 -30 -45 -30 l-45 0 0 -45 0 -45 60 0 60 0 0 -30 0 -30 -95 0
-95 0 0 165 0 165 96 0 c84 0 95 -2 90 -16z m259 -81 l60 -96 3 96 3 97 34 0
35 0 0 -165 0 -165 -29 0 c-25 0 -35 11 -87 93 l-59 92 -3 -92 -3 -93 -34 0
-35 0 0 165 0 165 28 0 c23 0 35 -13 87 -97z m489 -60 c31 -87 56 -161 56
-165 0 -5 -15 -8 -34 -8 -30 0 -36 4 -46 35 -11 35 -12 35 -70 35 l-59 0 -7
-35 c-6 -33 -9 -35 -45 -35 l-38 0 13 38 c8 20 32 89 55 152 23 63 43 121 46
128 2 6 20 12 38 12 l34 0 57 -157z m-1460 -622 c28 -26 36 -87 15 -108 -7 -7
-1 -19 20 -41 26 -25 31 -38 31 -77 0 -91 -87 -138 -220 -120 l-50 7 0 177 c0
98 3 181 8 185 4 4 44 6 89 4 70 -3 85 -6 107 -27z m286 -121 l0 -150 45 0
c45 0 45 0 45 -35 l0 -35 -85 0 -85 0 0 185 0 185 40 0 40 0 0 -150z m417 63
c17 -49 47 -132 67 -185 l35 -98 -43 0 c-41 0 -43 1 -55 40 l-12 41 -61 -3
c-60 -3 -62 -4 -73 -38 -10 -30 -16 -35 -48 -38 -20 -2 -37 0 -37 5 0 4 28 88
62 185 l63 178 35 0 35 0 32 -87z m418 75 c20 -9 25 -18 25 -50 0 -43 -2 -44
-35 -22 -31 20 -104 15 -119 -8 -16 -26 9 -46 72 -58 68 -12 99 -34 111 -76
25 -91 -55 -165 -163 -151 -79 11 -96 24 -96 73 l0 43 36 -24 c65 -44 160 -28
152 25 -3 24 -20 33 -92 45 -56 9 -96 52 -96 103 0 43 28 88 64 102 31 13 111
12 141 -2z m435 -23 c0 -35 0 -35 -45 -35 l-45 0 0 -150 0 -150 -40 0 -40 0 0
150 0 150 -45 0 c-45 0 -45 0 -45 35 l0 35 130 0 130 0 0 -35z m220 -150 l0
-185 -40 0 -40 0 0 178 c0 98 3 182 7 185 3 4 21 7 40 7 l33 0 0 -185z m305
80 c37 -58 72 -108 77 -111 5 -4 8 37 7 103 l-2 108 34 0 34 0 3 -182 2 -183
-32 1 c-31 0 -38 7 -98 102 l-65 102 -3 -103 -3 -102 -40 0 c-33 0 -40 3 -35
16 3 9 6 92 6 185 l0 169 24 0 c20 0 37 -19 91 -105z m580 93 c19 -8 25 -19
25 -43 0 -41 -6 -46 -38 -29 -15 8 -47 14 -70 14 -37 0 -50 -6 -78 -34 -29
-29 -34 -41 -34 -80 0 -66 22 -103 69 -117 54 -16 95 4 99 49 3 31 2 32 -32
32 -34 0 -36 2 -36 35 l0 35 70 0 70 0 0 -79 c0 -78 -1 -79 -35 -109 -83 -73
-219 -41 -274 65 -29 57 -4 180 46 225 48 44 160 62 218 36z"/>
<path d="M895 2985 c-35 -25 -38 -25 -50 -8 -12 16 -14 15 -13 -14 l1 -32 44
26 c25 14 61 32 81 39 l37 13 -31 1 c-18 0 -48 -11 -69 -25z"/>
<path d="M935 2976 c-36 -16 -85 -70 -85 -95 0 -19 68 -131 79 -131 5 0 16 17
25 38 14 34 14 29 0 -33 -4 -13 2 -25 18 -34 20 -13 22 -12 11 1 -13 16 -12
118 2 151 8 20 25 17 88 -14 l37 -19 0 32 c-1 89 -90 141 -175 104z"/>
<path d="M757 2945 c-8 -8 -17 -11 -21 -8 -3 4 -6 0 -6 -8 0 -11 -2 -11 -10 1
-8 13 -10 12 -10 -3 0 -15 7 -18 43 -15 35 2 43 7 45 26 4 26 -19 30 -41 7z"/>
<path d="M510 2890 c-155 -62 -280 -188 -342 -345 -26 -66 -32 -98 -36 -185
-4 -99 10 -220 26 -220 4 0 19 15 34 33 14 18 55 53 91 78 93 63 103 83 87
175 -38 218 26 373 190 463 70 39 47 39 -50 1z"/>
<path d="M633 2895 c-23 -12 -44 -20 -47 -17 -3 3 -6 -1 -6 -8 0 -7 -3 -10 -6
-7 -4 3 -19 -7 -34 -23 -15 -16 -30 -26 -34 -23 -3 3 -6 -1 -6 -11 0 -9 -4
-14 -10 -11 -5 3 -10 -1 -10 -10 0 -9 -4 -13 -10 -10 -5 3 -10 -3 -10 -15 0
-18 8 -14 48 27 26 27 74 64 107 83 70 39 70 39 64 45 -3 2 -23 -7 -46 -20z"/>
<path d="M626 2862 c-133 -73 -206 -187 -206 -321 l0 -46 34 81 c67 164 146
243 267 269 19 4 47 18 63 32 l29 24 -63 -3 c-48 -2 -76 -11 -124 -36z"/>
<path d="M790 2862 l-22 -18 28 -18 c16 -10 23 -13 17 -5 -25 25 -7 35 26 15
8 -6 7 1 -4 18 -21 31 -17 30 -45 8z"/>
<path d="M1003 2797 l-21 -52 26 -22 c29 -24 44 -25 50 -2 3 11 2 11 -6 1 -7
-10 -13 -7 -25 12 -10 14 -17 33 -17 43 1 16 2 16 17 -2 l16 -20 -8 20 c-9 25
-9 35 0 58 4 9 3 17 -1 17 -5 0 -19 -24 -31 -53z"/>
<path d="M1064 2825 c8 -8 18 -24 21 -35 7 -21 24 -27 26 -10 5 37 2 45 -13
42 -9 -1 -19 2 -23 8 -3 5 -11 10 -16 10 -6 0 -4 -7 5 -15z"/>
<path d="M675 2801 c-46 -28 -89 -79 -135 -156 -41 -68 -42 -69 -35 -30 4 22
4 38 1 35 -2 -3 -30 -80 -61 -170 l-56 -165 23 -19 c13 -10 22 -23 20 -28 -1
-5 2 -7 7 -4 5 3 30 -3 57 -14 26 -11 48 -19 49 -18 12 17 20 71 14 103 -14
74 -10 181 10 244 35 112 108 178 208 188 l55 6 -38 23 c-47 29 -79 30 -119 5z"/>
<path d="M1111 2753 c-7 -14 -28 -50 -47 -80 -27 -39 -42 -53 -60 -53 -19 0
-24 -5 -24 -24 0 -22 3 -24 39 -19 26 4 48 0 67 -11 27 -16 32 -16 67 -1 34
14 37 18 37 56 0 39 1 41 25 35 14 -4 25 -2 25 3 0 11 -99 121 -109 121 -4 0
-13 -12 -20 -27z"/>
<path d="M910 2736 c45 -49 110 -97 122 -90 5 3 -15 22 -44 41 -29 19 -66 47
-83 61 -25 23 -24 21 5 -12z"/>
<path d="M440 2736 c0 -9 -4 -15 -8 -12 -13 8 -40 -97 -37 -144 1 -22 -2 -40
-7 -40 -5 0 -3 -10 3 -22 7 -13 11 -24 10 -26 -2 -2 -1 -6 2 -8 2 -2 7 31 10
74 3 49 13 98 26 127 15 33 18 52 11 59 -7 7 -10 4 -10 -8z"/>
<path d="M709 2722 c-64 -33 -112 -103 -130 -191 -10 -50 -10 -79 3 -236 1 -5
-2 -25 -6 -42 -6 -27 -4 -33 8 -33 9 0 16 8 16 19 0 37 12 50 59 66 32 10 52
25 64 45 21 35 21 35 -28 14 -21 -8 -48 -13 -61 -10 -23 6 -24 11 -24 86 0
171 88 290 215 290 28 0 44 4 40 10 -13 21 -101 11 -156 -18z"/>
<path d="M806 2613 c17 -127 30 -186 53 -231 37 -71 45 -77 112 -82 84 -7 94
-30 12 -30 -127 0 -174 74 -204 320 -7 55 -16 100 -21 100 -21 0 -49 -66 -45
-105 7 -58 64 -209 101 -262 44 -65 83 -83 179 -83 l79 0 -8 28 c-5 15 -9 51
-9 80 0 50 -1 52 -27 54 -16 0 -33 1 -38 2 -6 1 -19 -12 -30 -29 l-20 -30 0
27 c0 15 5 30 11 34 8 5 10 33 6 93 -9 128 -20 156 -71 186 -23 14 -54 25 -68
25 l-24 0 12 -97z"/>
<path d="M939 2667 c36 -39 41 -42 41 -29 0 4 -17 20 -38 36 l-37 29 34 -36z"/>
<path d="M1226 2625 c-23 -21 -26 -32 -26 -89 0 -58 3 -68 27 -91 33 -29 48
-31 63 -7 9 14 10 12 5 -11 -4 -20 -2 -27 6 -22 16 11 39 70 39 102 0 15 9 42
20 58 11 17 20 33 20 38 0 14 -24 7 -49 -15 l-26 -23 24 27 c33 38 17 57 -20
22 -16 -15 -29 -22 -29 -16 0 7 7 15 15 18 25 10 17 29 -14 31 -19 1 -38 -6
-55 -22z m54 12 c0 -2 -10 -12 -22 -23 l-23 -19 19 23 c18 21 26 27 26 19z"/>
<path d="M1397 2594 c-9 -10 -9 -62 1 -67 4 -3 25 -2 47 2 36 6 40 9 40 36 0
28 -3 30 -40 33 -23 2 -44 0 -48 -4z"/>
<path d="M1507 2574 c-11 -12 3 -24 29 -24 15 0 24 6 24 15 0 15 -40 21 -53 9z"/>
<path d="M1003 2563 c-19 -4 -23 -11 -23 -44 0 -42 13 -49 51 -29 15 9 21 7
25 -5 7 -18 34 -20 34 -2 0 7 -7 23 -16 35 -14 20 -14 22 2 22 25 0 5 17 -26
23 -14 3 -35 3 -47 0z"/>
<path d="M1138 2543 c-38 -15 -50 -39 -24 -49 23 -9 76 24 76 46 0 24 -3 24
-52 3z"/>
<path d="M1163 2488 c-13 -6 -23 -18 -23 -26 0 -13 -3 -12 -19 2 -16 14 -19
15 -24 2 -4 -9 3 -16 21 -19 34 -7 72 12 72 35 0 10 -1 18 -2 17 -2 0 -13 -5
-25 -11z"/>
<path d="M1024 2465 c-9 -21 3 -45 21 -45 9 0 14 4 11 9 -4 5 3 7 14 4 31 -8
24 15 -10 32 -27 14 -31 14 -36 0z"/>
<path d="M990 2451 c0 -6 5 -13 10 -16 6 -3 10 1 10 9 0 9 -4 16 -10 16 -5 0
-10 -4 -10 -9z"/>
<path d="M1132 2422 l-64 -24 7 -52 c8 -57 24 -93 53 -119 19 -17 21 -16 81
49 64 67 77 103 18 46 -44 -43 -54 -40 -20 5 27 36 28 36 4 23 l-24 -13 21 28
c27 34 27 47 5 67 -16 13 -24 12 -81 -10z"/>
<path d="M1314 2398 c-12 -12 -24 -35 -28 -49 -6 -29 -81 -117 -126 -149 -29
-20 -29 -21 -48 -2 -16 16 -33 19 -103 18 -46 0 -97 1 -113 4 -26 4 -33 0 -57
-40 -34 -56 -35 -64 -4 -104 13 -18 32 -50 41 -72 18 -43 132 -214 143 -214
21 0 104 65 161 126 111 118 163 259 158 421 l-3 85 -21 -24z"/>
<path d="M650 2287 c-14 -6 -26 -11 -26 -11 -1 -1 -5 -16 -9 -33 l-7 -33 56 0
c60 0 76 13 76 65 l0 26 -27 -19 c-16 -10 -37 -22 -47 -26 -19 -7 -19 -6 -1
14 23 25 18 31 -15 17z"/>
<path d="M324 2237 c-123 -79 -165 -128 -144 -168 11 -19 13 -18 52 26 48 55
105 89 177 105 50 12 53 14 35 27 -56 43 -66 43 -120 10z"/>
<path d="M464 2245 c41 -31 175 -75 238 -78 l62 -2 24 45 24 45 -34 -39 c-33
-38 -35 -39 -84 -32 -60 9 -143 32 -204 57 -32 14 -40 15 -26 4z"/>
<path d="M409 2163 c-31 -16 -83 -57 -122 -96 l-67 -68 32 -46 c28 -39 143
-143 158 -143 8 0 81 104 112 158 l27 47 -35 80 c-19 44 -38 83 -42 87 -5 5
-33 -4 -63 -19z"/>
<path d="M525 2121 c76 -138 167 -194 280 -169 48 11 49 12 20 18 -66 14 -118
48 -169 110 l-29 35 24 5 c18 5 8 10 -46 23 -38 10 -78 20 -89 23 -16 5 -15 0
9 -45z"/>
<path d="M2410 2900 c0 -49 1 -50 29 -50 59 0 86 71 35 90 -54 21 -64 15 -64
-40z"/>
<path d="M3890 2835 c0 -107 1 -115 19 -115 62 0 103 45 103 114 0 71 -21 96
-89 109 l-33 7 0 -115z"/>
<path d="M4355 2941 c-53 -15 -75 -48 -75 -111 0 -115 165 -141 188 -30 10 47
5 80 -16 107 -19 26 -67 42 -97 34z"/>
<path d="M2061 2871 c-7 -24 -15 -49 -18 -57 -4 -10 4 -14 31 -14 35 0 36 1
30 28 -4 15 -12 40 -18 56 l-12 29 -13 -42z"/>
<path d="M3536 2873 c-3 -16 -8 -38 -12 -50 -6 -21 -3 -23 29 -23 l35 0 -16
50 c-18 57 -27 62 -36 23z"/>
<path d="M2060 2150 c0 -40 1 -41 31 -38 18 2 37 11 43 21 16 25 -4 51 -43 55
-30 3 -31 2 -31 -38z"/>
<path d="M2065 2037 c-4 -8 -5 -34 -3 -58 3 -44 3 -44 41 -43 62 2 102 61 62
94 -24 20 -94 25 -100 7z"/>
<path d="M2798 2087 l-15 -52 30 -3 c16 -2 31 -1 34 2 7 7 -17 95 -27 101 -4
3 -14 -19 -22 -48z"/>
</g>
</svg>
